<?xml version="1.0" encoding="iso-8859-1"?>
<!-- Generator: Adobe Illustrator 19.0.0, SVG Export Plug-In . SVG Version: 6.00 Build 0)  -->
<svg version="1.1" id="Capa_1" xmlns="http://www.w3.org/2000/svg" xmlns:xlink="http://www.w3.org/1999/xlink" x="0px" y="0px"
	 viewBox="0 0 511.999 511.999" style="enable-background:new 0 0 511.999 511.999;" xml:space="preserve">
<g>
	<g>
		<polygon points="144.229,368.865 125.335,368.865 98.511,393.155 107.162,368.87 91.181,368.865 69.358,427.292 85.105,427.298 
			97.31,395.9 105.398,427.292 123.867,427.292 115.957,395.815 		"/>
	</g>
</g>
<g>
	<g>
		<path d="M151.822,370.204c-5.13,2.221-9.1,5.776-12.325,10.257c-3.795,5.257-10.077,19.023-10.701,28.247
			c-0.809,11.806,6.283,21.145,25.58,19.986c21.329-1.289,26.929-15.858,32.606-31.759
			C197.755,366.95,168.261,363.104,151.822,370.204z M172.804,387.444c-1.926,7.157-5.252,19.133-9.886,24.944
			c-5.858,7.337-17.358,4.695-17.778-2.418c-0.27-5.699,6.649-23.609,10.276-27.493
			C161.856,375.549,175.258,378.511,172.804,387.444z"/>
	</g>
</g>
<g>
	<g>
		<polygon points="243.469,368.865 228.071,411.358 226.854,368.865 203.32,368.865 181.93,427.298 196.841,427.298 
			212.397,383.655 213.814,427.298 236.515,427.298 258.323,368.865 		"/>
	</g>
</g>
<g>
	<g>
		<path d="M278.247,368.86l-38.378,58.44h15.867l7.928-11.575l19.141-0.037l-0.325,11.617h15.285v-0.001l1.041-58.444H278.247z
			 M283.509,403.921l-12.077,0.032l12.864-21.293L283.509,403.921z"/>
	</g>
</g>
<g>
	<g>
		<polygon points="366.356,368.881 343.328,406.59 348.462,368.873 322.339,368.873 300.515,427.297 315.397,427.297 
			331.554,383.961 328.192,427.304 343.938,427.304 371.665,384.575 355.502,427.299 370.84,427.299 392.774,368.881 		"/>
	</g>
</g>
<g>
	<g>
		<polygon points="403.035,368.875 381.148,427.304 396.283,427.304 418.39,368.875 		"/>
	</g>
</g>
<g>
	<g>
		<path d="M394.005,161.393H314.66c-5.767,0-10.792,4.1-11.947,9.745c-3.025,14.733-7.464,47.319-27.112,60.953
			c-8.758,5.929-10.955,6.96-22.876,10.044c-34.81,8.968-67.778,0.66-91.862,81.91c-2.326,7.825,3.568,15.668,11.692,15.668h72.323
			c5.711,0,10.599-3.887,11.884-9.451c4.947-21.401,16.127-44.336,33.125-60.88c27.226-24.804,58.82-1.872,91.996-40.164
			c11.099-12.854,14.579-23.78,23.716-51.842C408.16,169.527,402.309,161.393,394.005,161.393z M337.092,238.563
			c-27.414,3.827-34.617,4.986-45.514,11.168c-24.345,13.834-42.027,47.421-48.91,74.978h-66.336
			c4.889-15.854,12.717-37.237,24.848-48.654c20.883-19.897,46.76-12.522,72.138-25.052c31.108-15.127,37.747-45.964,43.629-74.61
			h73.184C383.493,196.432,374.567,233.385,337.092,238.563z"/>
	</g>
</g>
<g>
	<g>
		<path d="M333.808,75.72h-79.343c-5.76,0-10.786,4.095-11.95,9.745l-4.117,20.053c-3.911,18.536-14.103,37.697-31.878,46.343
			c-21.578,10.654-51.277,4.209-75.851,27.629c-15.294,14.394-24.031,38.733-30.004,58.882c-2.319,7.811,3.558,15.667,11.693,15.667
			h72.324c5.711,0,10.598-3.887,11.884-9.453c5.899-25.529,19.701-48.563,32.637-60.412l-0.001-0.001
			c0.122-0.113,0.263-0.247,0.372-0.354v0.001c12.216-11.806,27.315-12.989,49.379-16.072c28.186-3.886,50.24-26.149,58.348-52.44
			c2.848-7.904,5.574-15.848,8.099-23.594C347.976,83.874,342.118,75.72,333.808,75.72z M310.341,133.728
			c-29.299,33.81-61.974,8.468-93.796,41.866c-17.184,18.208-28.326,40.429-34.073,63.444h-66.336
			c4.929-15.982,12.676-37.199,24.849-48.656c20.897-19.917,46.687-12.485,72.137-25.05c33.122-16.113,38.633-50.286,43.627-74.611
			h73.185C320.912,117.942,317.967,124.896,310.341,133.728z"/>
	</g>
</g>
<g>
	<g>
		<path d="M477.471,0h-203.97c-4.143,0-7.5,3.358-7.5,7.5c0,4.142,3.357,7.5,7.5,7.5h203.97c10.768,0,19.526,8.76,19.526,19.526
			v194.509c0,4.142,3.357,7.5,7.5,7.5s7.5-3.358,7.5-7.5V34.527C511.998,15.489,496.51,0,477.471,0z"/>
	</g>
</g>
<g>
	<g>
		<path d="M504.498,256.538c-4.143,0-7.5,3.358-7.5,7.5v213.434c0,10.767-8.76,19.526-19.526,19.526H34.528
			c-10.767,0-19.526-8.76-19.526-19.526V34.527c0-10.767,8.76-19.526,19.526-19.526h203.97c4.142,0,7.5-3.358,7.5-7.5
			c0-4.142-3.358-7.5-7.5-7.5H34.528C15.489,0,0,15.489,0,34.527v442.945c0,19.038,15.489,34.527,34.527,34.527h442.944
			c19.038,0,34.527-15.489,34.527-34.527V264.038C511.998,259.896,508.641,256.538,504.498,256.538z"/>
	</g>
</g>
<g>
</g>
<g>
</g>
<g>
</g>
<g>
</g>
<g>
</g>
<g>
</g>
<g>
</g>
<g>
</g>
<g>
</g>
<g>
</g>
<g>
</g>
<g>
</g>
<g>
</g>
<g>
</g>
<g>
</g>
</svg>
